<svg xmlns="http://www.w3.org/2000/svg" width="600" height="800" viewBox="0 0 600 800">
  <defs>
    <linearGradient id="bg" x1="0" y1="0" x2="1" y2="1">
      <stop offset="0%" stop-color="#FFE4EF"/>
      <stop offset="55%" stop-color="#FFF6E0"/>
      <stop offset="100%" stop-color="#DDF5FF"/>
    </linearGradient>
    <linearGradient id="track" x1="0" y1="0" x2="1" y2="0">
      <stop offset="0%" stop-color="#FF7A9F"/>
      <stop offset="100%" stop-color="#49C5B6"/>
    </linearGradient>
  </defs>

  <rect x="20" y="20" width="560" height="760" rx="48" fill="url(#bg)"/>
  <rect x="60" y="80" width="480" height="620" rx="36" fill="#FFFFFF" opacity="0.9"/>

  <text x="300" y="150" text-anchor="middle" font-family="Trebuchet MS, sans-serif" font-size="34" fill="#2F2A3A" letter-spacing="2">タツ・トマーレ</text>
  <text x="300" y="188" text-anchor="middle" font-family="Trebuchet MS, sans-serif" font-size="16" fill="#2F2A3A" letter-spacing="4">TATSU TOMARE</text>

  <path d="M140 250 C240 210 360 210 460 250" fill="none" stroke="url(#track)" stroke-width="10" stroke-linecap="round"/>
  <path d="M120 320 C220 360 380 360 480 320" fill="none" stroke="url(#track)" stroke-width="10" stroke-linecap="round"/>
  <path d="M160 400 C240 440 360 440 440 400" fill="none" stroke="url(#track)" stroke-width="10" stroke-linecap="round"/>

  <circle cx="180" cy="520" r="48" fill="#FAD7E5"/>
  <circle cx="180" cy="520" r="34" fill="#F7B38C"/>
  <circle cx="168" cy="516" r="6" fill="#2F2A3A"/>
  <circle cx="192" cy="516" r="6" fill="#2F2A3A"/>
  <path d="M170 534 Q180 542 190 534" fill="none" stroke="#2F2A3A" stroke-width="4" stroke-linecap="round"/>

  <circle cx="420" cy="520" r="48" fill="#E8F2FF"/>
  <circle cx="420" cy="520" r="34" fill="#2F2A3A"/>
  <circle cx="410" cy="514" r="7" fill="#FFFFFF"/>
  <circle cx="430" cy="514" r="7" fill="#FFFFFF"/>
  <circle cx="410" cy="514" r="3" fill="#2F2A3A"/>
  <circle cx="430" cy="514" r="3" fill="#2F2A3A"/>
  <polygon points="420,524 412,536 428,536" fill="#F4C26E"/>

  <circle cx="300" cy="620" r="54" fill="#ECF9F0"/>
  <circle cx="300" cy="620" r="38" fill="#78C98B"/>
  <circle cx="288" cy="612" r="6" fill="#2F2A3A"/>
  <circle cx="312" cy="612" r="6" fill="#2F2A3A"/>
  <path d="M292 632 Q300 638 308 632" fill="none" stroke="#2F2A3A" stroke-width="4" stroke-linecap="round"/>

  <text x="300" y="720" text-anchor="middle" font-family="Trebuchet MS, sans-serif" font-size="16" fill="#6F647D">Hide and seek board race for friends</text>
</svg>
